<svg xmlns="http://www.w3.org/2000/svg" version="1.1" xmlns:xlink="http://www.w3.org/1999/xlink" xmlns:svgjs="http://svgjs.dev/svgjs" width="2000" height="626" viewBox="0 0 2000 626"><g transform="matrix(1,0,0,1,-1.2121212121212466,0.4140392375826991)"><svg viewBox="0 0 396 124" data-background-color="#ffffff" preserveAspectRatio="xMidYMid meet" height="626" width="2000" xmlns="http://www.w3.org/2000/svg" xmlns:xlink="http://www.w3.org/1999/xlink"><g id="tight-bounds" transform="matrix(1,0,0,1,0.2400000000000091,-0.0820141620770869)"><svg viewBox="0 0 395.52 124.16402832415419" height="124.16402832415419" width="395.52"><g><svg viewBox="0 0 395.52 124.16402832415419" height="124.16402832415419" width="395.52"><g><svg viewBox="0 0 395.52 124.16402832415419" height="124.16402832415419" width="395.52"><g id="textblocktransform"><svg viewBox="0 0 395.52 124.16402832415419" height="124.16402832415419" width="395.52" id="textblock"><g><svg viewBox="0 0 395.52 124.16402832415419" height="124.16402832415419" width="395.52"><g transform="matrix(1,0,0,1,0,0)"><svg width="395.52" viewBox="4.9 -41.5 191.13 59.85" height="124.16402832415419" data-palette-color="#000000"><g class="wordmark-text-0" data-fill-palette-color="primary" id="text-0"><path d="M4.9-3.35L4.9-3.35Q4.9-3.8 4.98-4.48 5.05-5.15 5.25-6.28 5.45-7.4 5.78-9 6.1-10.6 6.6-12.85L6.6-12.85Q6.7-13.35 7.05-14.45 7.4-15.55 7.98-16.78 8.55-18 9.38-19.15 10.2-20.3 11.35-20.85L11.35-20.85Q12.2-20.65 13.6-19.83 15-19 16-17.55L16-17.55Q14.85-16.25 14.08-14.95 13.3-13.65 12.68-12.25 12.05-10.85 11.53-9.35 11-7.85 10.35-6.2L10.35-6.2Q9.8-4.8 9.35-3.33 8.9-1.85 8.85-0.75L8.85-0.75Q8.85 0.15 8.83 0.53 8.8 0.9 8.55 0.9L8.55 0.9Q8.35 0.9 7.75 0.65 7.15 0.4 6.53-0.13 5.9-0.65 5.4-1.45 4.9-2.25 4.9-3.35ZM14.45-25.05L14.45-25.05Q14.45-25.35 14.6-25.95L14.6-25.95Q14.35-26.2 14.18-26.7 14-27.2 14-27.6L14-27.6Q14-28.05 14.13-28.83 14.25-29.6 14.45-30.5 14.65-31.4 14.95-32.38 15.25-33.35 15.55-34.15L15.55-34.15Q16.15-34.15 17.03-33.83 17.9-33.5 18.8-32.98 19.7-32.45 20.45-31.83 21.2-31.2 21.6-30.65L21.6-30.65Q21.05-30.1 20.15-29.13 19.25-28.15 18.4-27.08 17.55-26 16.85-25.05 16.15-24.1 15.95-23.7L15.95-23.7Q15.35-23.8 14.9-24.23 14.45-24.65 14.45-25.05ZM24.75-24.25L24.75-24.25Q26.05-23.85 27.2-22.48 28.35-21.1 28.9-19.45L28.9-19.45Q28.35-18.1 27.2-16.2 26.05-14.3 24.9-12.33 23.75-10.35 22.82-8.58 21.9-6.8 21.75-5.65L21.75-5.65Q22.55-6.5 23.52-7.63 24.5-8.75 25.42-9.88 26.35-11 27.15-11.93 27.95-12.85 28.4-13.3L28.4-13.3Q29.35-14.3 30.65-15.63 31.95-16.95 33.37-18.13 34.8-19.3 36.25-20.13 37.7-20.95 38.9-20.95L38.9-20.95Q40.2-20.95 41.07-20.08 41.95-19.2 42.45-18.25L42.45-18.25Q42.45-18.15 42.07-17.98 41.7-17.8 41-17L41-17Q40.3-16.1 39.42-14.53 38.55-12.95 37.72-11.13 36.9-9.3 36.35-7.4 35.8-5.5 35.8-3.95L35.8-3.95Q35.8-2.7 36.12-2.35 36.45-2 37.05-2L37.05-2Q37.6-2 38.2-2.25 38.8-2.5 39.15-2.5L39.15-2.5Q39.35-2.4 39.47-2.08 39.6-1.75 39.6-1.5L39.6-1.5Q39.2-1.15 38.65-0.8 38.1-0.45 37.5-0.15 36.9 0.15 36.32 0.35 35.75 0.55 35.3 0.55L35.3 0.55Q33.85 0.55 32.92 0.13 32-0.3 31.47-1 30.95-1.7 30.75-2.68 30.55-3.65 30.55-4.75L30.55-4.75Q30.55-5.35 30.65-6.1 30.75-6.85 31.05-7.88 31.35-8.9 31.9-10.33 32.45-11.75 33.3-13.75L33.3-13.75Q33.2-13.75 31.95-13.05 30.7-12.35 29.25-10.9L29.25-10.9Q26.9-8.65 25.02-6.45 23.15-4.25 21.2-1.55L21.2-1.55Q20.1 0 19.27 1.07 18.45 2.15 17.85 2.5L17.85 2.5Q16.8 1.9 16.3 0.83 15.8-0.25 15.55-1.4L15.55-1.4Q15.55-2.35 15.82-3.8 16.1-5.25 16.57-7.03 17.05-8.8 17.75-10.75 18.45-12.7 19.3-14.65L19.3-14.65Q21.2-19.05 22.77-21.55 24.35-24.05 24.75-24.25ZM60.9-19.9L60.9-19.9Q60.84-18.95 60.57-17.93 60.3-16.9 59.9-16.07 59.5-15.25 59.05-14.7 58.59-14.15 58.2-14.15L58.2-14.15Q57.65-14.2 57.55-14.9L57.55-14.9Q57.55-15.05 57.67-15.38 57.8-15.7 57.95-16.1 58.09-16.5 58.22-16.9 58.34-17.3 58.34-17.6L58.34-17.6Q58.34-18.3 58.02-18.78 57.7-19.25 57.15-19.25L57.15-19.25Q55.15-19.25 54.09-16.75 53.05-14.25 53.05-9.4L53.05-9.4Q53.05-8.9 53.09-8.8L53.09-8.8Q54.15-8.85 54.97-8.88 55.8-8.9 56.59-8.9L56.59-8.9Q56.65-8.8 56.65-8.5L56.65-8.5Q56.65-8.05 56.45-7.85L56.45-7.85Q55.3-7.6 54.62-7.43 53.95-7.25 53.59-7.1 53.25-6.95 53.17-6.78 53.09-6.6 53.09-6.3L53.09-6.3Q53.09-5.9 53.12-5.5 53.15-5.1 53.15-4.5L53.15-4.5Q53.15-0.3 50.87 2.25 48.59 4.8 44.55 5.2L44.55 5.2Q43.84 5.15 43.09 4.8 42.34 4.45 41.67 3.9 41 3.35 40.5 2.68 40 2 39.8 1.3L39.8 1.3Q39.8-0.6 40.59-2.33 41.4-4.05 42.77-5.38 44.15-6.7 46.02-7.53 47.9-8.35 50.09-8.5L50.09-8.5Q50.09-9.75 49.84-10.95 49.59-12.15 49.32-13.28 49.05-14.4 48.8-15.48 48.55-16.55 48.55-17.6L48.55-17.6Q48.55-18.95 49.09-20.28 49.65-21.6 50.55-22.73 51.45-23.85 52.65-24.65 53.84-25.45 55.15-25.75L55.15-25.75Q55.7-25.6 56.62-24.88 57.55-24.15 58.45-23.25 59.34-22.35 60.05-21.43 60.75-20.5 60.9-19.9ZM44.4 2.9L44.4 2.9Q45.59 2.4 46.67 1.45 47.75 0.5 48.55-0.7 49.34-1.9 49.82-3.25 50.3-4.6 50.3-5.9L50.3-5.9Q49.3-5.75 48.09-4.98 46.9-4.2 45.84-3.13 44.8-2.05 44.09-0.9 43.4 0.25 43.4 1.1L43.4 1.1Q43.4 2.2 44.4 2.9ZM66.74-19.15L63.89-19.15Q63.64-19.45 63.44-20.43 63.24-21.4 63.24-22.1L63.24-22.1Q64.54-22 65.74-21.93 66.94-21.85 67.94-21.8L67.94-21.8Q68.69-23.3 69.57-24.78 70.44-26.25 71.27-27.48 72.09-28.7 72.82-29.55 73.54-30.4 73.94-30.65L73.94-30.65Q74.44-30.65 75.22-30.48 75.99-30.3 76.79-30.03 77.59-29.75 78.24-29.45 78.89-29.15 79.14-28.85L79.14-28.85Q77.64-26.95 76.57-25.33 75.49-23.7 74.24-21.6L74.24-21.6Q75.24-21.6 76.27-21.65 77.29-21.7 78.34-21.8L78.34-21.8Q78.59-21.55 78.74-21.18 78.89-20.8 78.89-20.4L78.89-20.4Q76.44-19.5 72.94-19.4L72.94-19.4Q71.69-17 70.72-14.63 69.74-12.25 69.07-10.05 68.39-7.85 68.02-5.9 67.64-3.95 67.64-2.4L67.64-2.4Q67.64-0.2 69.29 0.05L69.29 0.05Q70.79-0.15 72.14-0.7 73.49-1.25 74.54-2.1L74.54-2.1Q74.84-1.65 74.89-1.35L74.89-1.35Q74.59-0.9 73.87-0.3 73.14 0.3 72.29 0.88 71.44 1.45 70.64 1.85 69.84 2.25 69.44 2.3L69.44 2.3Q68.19 2.25 66.94 1.75 65.69 1.25 64.67 0.5 63.64-0.25 62.99-1.18 62.34-2.1 62.34-3L62.34-3Q62.34-4.2 62.67-6.03 62.99-7.85 63.59-10 64.19-12.15 64.99-14.5 65.79-16.85 66.74-19.15L66.74-19.15ZM95.79-20.2L95.79-20.2Q96.29-20.2 96.97-20.03 97.64-19.85 98.19-19.58 98.74-19.3 99.11-19 99.49-18.7 99.49-18.45L99.49-18.45Q98.49-16.35 97.64-14.23 96.79-12.1 96.19-10.15 95.59-8.2 95.27-6.5 94.94-4.8 94.94-3.55L94.94-3.55Q94.94-2.15 95.24-1.23 95.54-0.3 96.24 0.1L96.24 0.1Q95.64 0.5 94.69 0.75 93.74 1 92.99 1L92.99 1Q90.29 1 90.29-2.7L90.29-2.7Q90.29-5.55 92.19-10.5L92.19-10.5Q91.19-8.2 89.89-6.18 88.59-4.15 87.24-2.6 85.89-1.05 84.52-0.08 83.14 0.9 81.99 1.1L81.99 1.1Q80.14 1 78.99-0.68 77.84-2.35 77.84-4.95L77.84-4.95Q77.84-7.75 79.04-10.85 80.24-13.95 82.11-16.6 83.99-19.25 86.19-21.03 88.39-22.8 90.44-22.9L90.44-22.9Q90.94-22.75 91.56-22.3 92.19-21.85 92.77-21.25 93.34-20.65 93.74-20.03 94.14-19.4 94.19-18.95L94.19-18.95Q92.19-18.65 90.06-17 87.94-15.35 86.22-13.03 84.49-10.7 83.39-8.05 82.29-5.4 82.29-3.1L82.29-3.1Q82.29-2.15 82.99-1.9L82.99-1.9Q84.44-2.2 86.34-4.38 88.24-6.55 90.94-11.1L90.94-11.1Q91.44-12 92.06-13.1 92.69-14.2 93.34-15.4 93.99-16.6 94.61-17.82 95.24-19.05 95.79-20.2ZM91.94 14.9L91.94 14.9Q91.94 14.6 92.14 14.35 92.34 14.1 92.59 13.85L92.59 13.85Q93.19 14.4 93.61 14.7 94.04 15 94.41 15.2 94.79 15.4 95.19 15.45 95.59 15.5 96.14 15.5L96.14 15.5Q98.74 15.5 101.09 14.13 103.44 12.75 105.51 10.15 107.59 7.55 109.29 3.8 110.99 0.05 112.29-4.7L112.29-4.7Q111.69-4.1 110.81-3.38 109.94-2.65 108.99-2 108.04-1.35 107.11-0.8 106.19-0.25 105.54 0L105.54 0Q104.69-0.15 103.96-0.73 103.24-1.3 102.69-2.15 102.14-3 101.84-4.08 101.54-5.15 101.54-6.35L101.54-6.35Q101.54-8.3 102.26-10.35 102.99-12.4 104.19-14.38 105.39-16.35 107.01-18.1 108.64-19.85 110.46-21.15 112.29-22.45 114.16-23.23 116.04-24 117.84-24L117.84-24Q119.59-24 120.46-23.28 121.34-22.55 121.74-20.8L121.74-20.8Q121.19-21.1 120.34-21.1L120.34-21.1Q119.14-21.1 117.56-20.15 115.99-19.2 114.36-17.68 112.74-16.15 111.14-14.18 109.54-12.2 108.31-10.15 107.09-8.1 106.31-6.15 105.54-4.2 105.54-2.65L105.54-2.65Q105.54-2.3 105.59-2.23 105.64-2.15 105.74-2.15L105.74-2.15Q106.19-2.15 106.96-2.65 107.74-3.15 108.71-3.93 109.69-4.7 110.74-5.73 111.79-6.75 112.74-7.8L112.74-7.8Q114.89-10.2 116.66-13.18 118.44-16.15 119.49-18.95L119.49-18.95Q120.84-18.85 121.89-18.5 122.94-18.15 123.34-17.75L123.34-17.75Q121.64-13.85 120.61-11.2 119.59-8.55 118.84-6.5L118.84-6.5Q117.49-2.9 116.31 0.08 115.14 3.05 113.91 5.58 112.69 8.1 111.26 10.28 109.84 12.45 108.04 14.45L108.04 14.45Q107.19 15.4 106.11 16.13 105.04 16.85 103.91 17.35 102.79 17.85 101.71 18.1 100.64 18.35 99.74 18.35L99.74 18.35Q98.54 18.35 97.29 18.07 96.04 17.8 94.96 17.32 93.89 16.85 93.09 16.23 92.29 15.6 91.94 14.9ZM124.48-3.2L124.48-3.2Q124.48-5.4 125.53-9.38 126.59-13.35 128.49-18.65L128.49-18.65Q131.59-27.1 134.31-32.73 137.03-38.35 139.63-41.5L139.63-41.5Q140.24-41.4 141.11-41 141.99-40.6 142.84-40.13 143.69-39.65 144.36-39.15 145.03-38.65 145.24-38.35L145.24-38.35Q141.34-33.75 138.38-28.45 135.44-23.15 132.99-16.3L132.99-16.3Q130.88-10.4 129.78-5.68 128.69-0.95 128.69 2.2L128.69 2.2Q128.69 3.05 128.69 3.25 128.69 3.45 128.74 3.65L128.74 3.65Q128.03 3.55 127.53 3.3 127.03 3.05 126.89 2.7L126.89 2.7Q126.78 2.45 126.34 1.98 125.89 1.5 125.53 1.25L125.53 1.25Q125.09 0.95 124.78-0.33 124.48-1.6 124.48-3.2ZM153.58-20.2L153.58-20.2Q154.08-20.2 154.76-20.03 155.43-19.85 155.98-19.58 156.53-19.3 156.91-19 157.28-18.7 157.28-18.45L157.28-18.45Q156.28-16.35 155.43-14.23 154.58-12.1 153.98-10.15 153.38-8.2 153.06-6.5 152.73-4.8 152.73-3.55L152.73-3.55Q152.73-2.15 153.03-1.23 153.33-0.3 154.03 0.1L154.03 0.1Q153.43 0.5 152.48 0.75 151.53 1 150.78 1L150.78 1Q148.08 1 148.08-2.7L148.08-2.7Q148.08-5.55 149.98-10.5L149.98-10.5Q148.98-8.2 147.68-6.18 146.38-4.15 145.03-2.6 143.68-1.05 142.31-0.08 140.93 0.9 139.78 1.1L139.78 1.1Q137.93 1 136.78-0.68 135.63-2.35 135.63-4.95L135.63-4.95Q135.63-7.75 136.83-10.85 138.03-13.95 139.91-16.6 141.78-19.25 143.98-21.03 146.18-22.8 148.23-22.9L148.23-22.9Q148.73-22.75 149.36-22.3 149.98-21.85 150.56-21.25 151.13-20.65 151.53-20.03 151.93-19.4 151.98-18.95L151.98-18.95Q149.98-18.65 147.86-17 145.73-15.35 144.01-13.03 142.28-10.7 141.18-8.05 140.08-5.4 140.08-3.1L140.08-3.1Q140.08-2.15 140.78-1.9L140.78-1.9Q142.23-2.2 144.13-4.38 146.03-6.55 148.73-11.1L148.73-11.1Q149.23-12 149.86-13.1 150.48-14.2 151.13-15.4 151.78-16.6 152.41-17.82 153.03-19.05 153.58-20.2ZM188.73-15.35L188.73-15.35Q187.93-15.3 186.78-14.33 185.63-13.35 184.31-11.83 182.98-10.3 181.56-8.45 180.13-6.6 178.81-4.78 177.48-2.95 176.33-1.35 175.18 0.25 174.38 1.2L174.38 1.2Q173.28 0.75 172.48-0.13 171.68-1 171.33-2.3L171.33-2.3Q171.58-3.85 172.03-5.53 172.48-7.2 173.21-9 173.93-10.8 175.01-12.78 176.08-14.75 177.63-16.95L177.63-16.95Q176.88-16.9 175.58-15.88 174.28-14.85 172.78-13.23 171.28-11.6 169.68-9.58 168.08-7.55 166.68-5.6L166.68-5.6Q164.83-3 163.61-1.05 162.38 0.9 161.83 1.25L161.83 1.25Q160.53 0.3 160.03-0.8 159.53-1.9 159.28-3.25L159.28-3.25Q159.33-4.45 159.66-6.25 159.98-8.05 160.58-9.95L160.58-9.95Q161.73-13.6 163.56-17.2 165.38-20.8 167.08-23.8L167.08-23.8Q168.48-23.5 169.61-22.85 170.73-22.2 171.98-20.95L171.98-20.95Q171.48-19.4 170.43-17.68 169.38-15.95 168.23-14.05 167.08-12.15 166.13-10.15 165.18-8.15 164.88-6.1L164.88-6.1Q166.28-8.1 168.21-10.7 170.13-13.3 172.16-15.6 174.18-17.9 176.18-19.5 178.18-21.1 179.78-21.1L179.78-21.1Q180.38-21.1 181.08-20.9 181.78-20.7 182.38-20.4 182.98-20.1 183.38-19.83 183.78-19.55 183.83-19.4L183.83-19.4Q183.58-18.4 182.66-16.68 181.73-14.95 180.68-13.05 179.63-11.15 178.73-9.38 177.83-7.6 177.68-6.55L177.68-6.55Q180.13-9.9 182.28-12.63 184.43-15.35 186.33-17.3 188.23-19.25 189.86-20.3 191.48-21.35 192.93-21.35L192.93-21.35Q193.93-21.35 194.81-20.83 195.68-20.3 196.03-19.3L196.03-19.3Q195.58-17.8 194.56-15.7 193.53-13.6 192.48-11.28 191.43-8.95 190.61-6.7 189.78-4.45 189.78-2.65L189.78-2.65Q189.78-1.6 190.08-1.28 190.38-0.95 190.93-0.95L190.93-0.95Q191.53-0.95 192.06-1.18 192.58-1.4 192.83-1.4L192.83-1.4Q193.13-1.2 193.18-0.9 193.23-0.6 193.23-0.35L193.23-0.35Q192.23 0.45 191.18 0.98 190.13 1.5 188.83 1.5L188.83 1.5Q187.63 1.5 186.86 1.1 186.08 0.7 185.58 0 185.08-0.7 184.88-1.6 184.68-2.5 184.68-3.55L184.68-3.55Q184.68-5.25 185.13-6.93 185.58-8.6 186.21-10.13 186.83-11.65 187.53-12.98 188.23-14.3 188.73-15.35Z" fill="#000000" data-fill-palette-color="primary"></path></g></svg></g></svg></g></svg></g></svg></g></svg></g><defs></defs></svg><rect width="395.52" height="124.16402832415419" fill="none" stroke="none" visibility="hidden"></rect></g></svg></g></svg>